<mxfile host="app.diagrams.net" agent="Mozilla/5.0 (Windows NT 10.0; Win64; x64) AppleWebKit/537.36 (KHTML, like Gecko) Chrome/135.0.0.0 Safari/537.36" version="26.2.10">
  <diagram name="Page-1" id="WU0iMaE5Dpg063nb5NPK">
    <mxGraphModel dx="1428" dy="777" grid="1" gridSize="10" guides="1" tooltips="1" connect="1" arrows="1" fold="1" page="1" pageScale="1" pageWidth="850" pageHeight="1100" math="0" shadow="0">
      <root>
        <mxCell id="0" />
        <mxCell id="1" parent="0" />
        <mxCell id="mD9q8K3ibK48MS1nmoSq-58" value="" style="group" parent="1" vertex="1" connectable="0">
          <mxGeometry x="60" y="75" width="700" height="730" as="geometry" />
        </mxCell>
        <mxCell id="mD9q8K3ibK48MS1nmoSq-1" value="&lt;font style=&quot;font-size: 14px;&quot;&gt;User&lt;/font&gt;" style="rounded=0;whiteSpace=wrap;html=1;" parent="mD9q8K3ibK48MS1nmoSq-58" vertex="1">
          <mxGeometry y="95" width="120" height="60" as="geometry" />
        </mxCell>
        <mxCell id="mD9q8K3ibK48MS1nmoSq-5" value="&lt;span style=&quot;font-size: 14px;&quot;&gt;Network Interface&lt;/span&gt;" style="rounded=0;whiteSpace=wrap;html=1;" parent="mD9q8K3ibK48MS1nmoSq-58" vertex="1">
          <mxGeometry x="580" y="95" width="120" height="60" as="geometry" />
        </mxCell>
        <mxCell id="mD9q8K3ibK48MS1nmoSq-7" value="" style="endArrow=classic;html=1;rounded=0;exitX=1;exitY=0.5;exitDx=0;exitDy=0;entryX=0;entryY=0.5;entryDx=0;entryDy=0;" parent="mD9q8K3ibK48MS1nmoSq-58" source="mD9q8K3ibK48MS1nmoSq-1" target="mD9q8K3ibK48MS1nmoSq-2" edge="1">
          <mxGeometry width="50" height="50" relative="1" as="geometry">
            <mxPoint x="340" y="355" as="sourcePoint" />
            <mxPoint x="390" y="305" as="targetPoint" />
          </mxGeometry>
        </mxCell>
        <mxCell id="mD9q8K3ibK48MS1nmoSq-47" value="&lt;font style=&quot;font-size: 14px;&quot;&gt;Controls Capture&lt;/font&gt;" style="edgeLabel;html=1;align=center;verticalAlign=middle;resizable=0;points=[];" parent="mD9q8K3ibK48MS1nmoSq-7" vertex="1" connectable="0">
          <mxGeometry x="-0.1569" y="2" relative="1" as="geometry">
            <mxPoint as="offset" />
          </mxGeometry>
        </mxCell>
        <mxCell id="mD9q8K3ibK48MS1nmoSq-8" value="" style="endArrow=classic;html=1;rounded=0;exitX=0.992;exitY=0.385;exitDx=0;exitDy=0;entryX=0;entryY=0.25;entryDx=0;entryDy=0;exitPerimeter=0;" parent="mD9q8K3ibK48MS1nmoSq-58" source="mD9q8K3ibK48MS1nmoSq-2" target="mD9q8K3ibK48MS1nmoSq-5" edge="1">
          <mxGeometry width="50" height="50" relative="1" as="geometry">
            <mxPoint x="130" y="135" as="sourcePoint" />
            <mxPoint x="310" y="135" as="targetPoint" />
          </mxGeometry>
        </mxCell>
        <mxCell id="mD9q8K3ibK48MS1nmoSq-12" value="Request for packets" style="edgeLabel;html=1;align=center;verticalAlign=middle;resizable=0;points=[];fontSize=14;" parent="mD9q8K3ibK48MS1nmoSq-8" vertex="1" connectable="0">
          <mxGeometry x="-0.0593" relative="1" as="geometry">
            <mxPoint as="offset" />
          </mxGeometry>
        </mxCell>
        <mxCell id="mD9q8K3ibK48MS1nmoSq-9" value="" style="endArrow=classic;html=1;rounded=0;exitX=0;exitY=0.75;exitDx=0;exitDy=0;entryX=0.977;entryY=0.623;entryDx=0;entryDy=0;entryPerimeter=0;" parent="mD9q8K3ibK48MS1nmoSq-58" source="mD9q8K3ibK48MS1nmoSq-5" target="mD9q8K3ibK48MS1nmoSq-2" edge="1">
          <mxGeometry width="50" height="50" relative="1" as="geometry">
            <mxPoint x="590" y="135" as="sourcePoint" />
            <mxPoint x="439" y="135" as="targetPoint" />
          </mxGeometry>
        </mxCell>
        <mxCell id="mD9q8K3ibK48MS1nmoSq-13" value="&lt;font style=&quot;font-size: 14px;&quot;&gt;Sends packets&lt;/font&gt;" style="edgeLabel;html=1;align=center;verticalAlign=middle;resizable=0;points=[];" parent="mD9q8K3ibK48MS1nmoSq-9" vertex="1" connectable="0">
          <mxGeometry x="0.1112" relative="1" as="geometry">
            <mxPoint as="offset" />
          </mxGeometry>
        </mxCell>
        <mxCell id="mD9q8K3ibK48MS1nmoSq-15" value="" style="endArrow=classic;html=1;rounded=0;exitX=0;exitY=1;exitDx=0;exitDy=0;entryX=0.5;entryY=0;entryDx=0;entryDy=0;" parent="mD9q8K3ibK48MS1nmoSq-58" source="mD9q8K3ibK48MS1nmoSq-2" target="mD9q8K3ibK48MS1nmoSq-17" edge="1">
          <mxGeometry width="50" height="50" relative="1" as="geometry">
            <mxPoint x="340" y="345" as="sourcePoint" />
            <mxPoint x="355" y="255" as="targetPoint" />
            <Array as="points">
              <mxPoint x="60" y="171" />
            </Array>
          </mxGeometry>
        </mxCell>
        <mxCell id="mD9q8K3ibK48MS1nmoSq-48" value="&lt;font style=&quot;font-size: 14px;&quot;&gt;Sends Packet&lt;/font&gt;" style="edgeLabel;html=1;align=center;verticalAlign=middle;resizable=0;points=[];" parent="mD9q8K3ibK48MS1nmoSq-15" vertex="1" connectable="0">
          <mxGeometry x="-0.2886" relative="1" as="geometry">
            <mxPoint as="offset" />
          </mxGeometry>
        </mxCell>
        <mxCell id="mD9q8K3ibK48MS1nmoSq-17" value="&lt;span style=&quot;font-size: 14px;&quot;&gt;Packet Analyser&lt;/span&gt;" style="rounded=0;whiteSpace=wrap;html=1;" parent="mD9q8K3ibK48MS1nmoSq-58" vertex="1">
          <mxGeometry y="270" width="120" height="60" as="geometry" />
        </mxCell>
        <mxCell id="mD9q8K3ibK48MS1nmoSq-19" value="" style="group" parent="mD9q8K3ibK48MS1nmoSq-58" vertex="1" connectable="0">
          <mxGeometry x="300" y="60" width="130" height="130" as="geometry" />
        </mxCell>
        <mxCell id="mD9q8K3ibK48MS1nmoSq-2" value="&lt;font style=&quot;font-size: 14px;&quot;&gt;Start/Stop Packet Capture&lt;/font&gt;" style="ellipse;whiteSpace=wrap;html=1;aspect=fixed;container=1;" parent="mD9q8K3ibK48MS1nmoSq-19" vertex="1">
          <mxGeometry width="130" height="130" as="geometry" />
        </mxCell>
        <mxCell id="mD9q8K3ibK48MS1nmoSq-3" value="" style="endArrow=none;html=1;rounded=0;exitX=0;exitY=0;exitDx=0;exitDy=0;entryX=1;entryY=0;entryDx=0;entryDy=0;" parent="mD9q8K3ibK48MS1nmoSq-19" source="mD9q8K3ibK48MS1nmoSq-2" target="mD9q8K3ibK48MS1nmoSq-2" edge="1">
          <mxGeometry width="50" height="50" relative="1" as="geometry">
            <mxPoint x="50" y="195" as="sourcePoint" />
            <mxPoint x="100" y="145" as="targetPoint" />
          </mxGeometry>
        </mxCell>
        <mxCell id="mD9q8K3ibK48MS1nmoSq-4" value="1.1" style="text;html=1;align=center;verticalAlign=middle;whiteSpace=wrap;rounded=0;" parent="mD9q8K3ibK48MS1nmoSq-19" vertex="1">
          <mxGeometry x="37.5" width="55" height="20" as="geometry" />
        </mxCell>
        <mxCell id="mD9q8K3ibK48MS1nmoSq-21" value="" style="group" parent="mD9q8K3ibK48MS1nmoSq-58" vertex="1" connectable="0">
          <mxGeometry x="300" y="235" width="130" height="130" as="geometry" />
        </mxCell>
        <mxCell id="mD9q8K3ibK48MS1nmoSq-22" value="&lt;font style=&quot;font-size: 14px;&quot;&gt;Arrange packets&lt;/font&gt;" style="ellipse;whiteSpace=wrap;html=1;aspect=fixed;container=1;" parent="mD9q8K3ibK48MS1nmoSq-21" vertex="1">
          <mxGeometry width="130" height="130" as="geometry" />
        </mxCell>
        <mxCell id="mD9q8K3ibK48MS1nmoSq-23" value="" style="endArrow=none;html=1;rounded=0;exitX=0;exitY=0;exitDx=0;exitDy=0;entryX=1;entryY=0;entryDx=0;entryDy=0;" parent="mD9q8K3ibK48MS1nmoSq-21" source="mD9q8K3ibK48MS1nmoSq-22" target="mD9q8K3ibK48MS1nmoSq-22" edge="1">
          <mxGeometry width="50" height="50" relative="1" as="geometry">
            <mxPoint x="50" y="195" as="sourcePoint" />
            <mxPoint x="100" y="145" as="targetPoint" />
          </mxGeometry>
        </mxCell>
        <mxCell id="mD9q8K3ibK48MS1nmoSq-24" value="1.2" style="text;html=1;align=center;verticalAlign=middle;whiteSpace=wrap;rounded=0;" parent="mD9q8K3ibK48MS1nmoSq-21" vertex="1">
          <mxGeometry x="37.5" width="55" height="20" as="geometry" />
        </mxCell>
        <mxCell id="mD9q8K3ibK48MS1nmoSq-25" value="" style="endArrow=classic;html=1;rounded=0;exitX=1;exitY=0.5;exitDx=0;exitDy=0;entryX=0;entryY=0.5;entryDx=0;entryDy=0;" parent="mD9q8K3ibK48MS1nmoSq-58" source="mD9q8K3ibK48MS1nmoSq-17" target="mD9q8K3ibK48MS1nmoSq-22" edge="1">
          <mxGeometry width="50" height="50" relative="1" as="geometry">
            <mxPoint x="130" y="135" as="sourcePoint" />
            <mxPoint x="300" y="135" as="targetPoint" />
          </mxGeometry>
        </mxCell>
        <mxCell id="mD9q8K3ibK48MS1nmoSq-49" value="&lt;font style=&quot;font-size: 14px;&quot;&gt;Separated Packets&lt;/font&gt;" style="edgeLabel;html=1;align=center;verticalAlign=middle;resizable=0;points=[];" parent="mD9q8K3ibK48MS1nmoSq-25" vertex="1" connectable="0">
          <mxGeometry x="-0.1389" y="1" relative="1" as="geometry">
            <mxPoint y="1" as="offset" />
          </mxGeometry>
        </mxCell>
        <mxCell id="mD9q8K3ibK48MS1nmoSq-26" value="" style="endArrow=classic;html=1;rounded=0;exitX=1;exitY=0.5;exitDx=0;exitDy=0;entryX=0;entryY=0.5;entryDx=0;entryDy=0;" parent="mD9q8K3ibK48MS1nmoSq-58" source="mD9q8K3ibK48MS1nmoSq-22" target="mD9q8K3ibK48MS1nmoSq-27" edge="1">
          <mxGeometry width="50" height="50" relative="1" as="geometry">
            <mxPoint x="130" y="310" as="sourcePoint" />
            <mxPoint x="550" y="305" as="targetPoint" />
          </mxGeometry>
        </mxCell>
        <mxCell id="mD9q8K3ibK48MS1nmoSq-50" value="&lt;font style=&quot;font-size: 14px;&quot;&gt;Packets Shown&lt;/font&gt;" style="edgeLabel;html=1;align=center;verticalAlign=middle;resizable=0;points=[];" parent="mD9q8K3ibK48MS1nmoSq-26" vertex="1" connectable="0">
          <mxGeometry x="-0.2222" y="1" relative="1" as="geometry">
            <mxPoint x="13" y="1" as="offset" />
          </mxGeometry>
        </mxCell>
        <mxCell id="mD9q8K3ibK48MS1nmoSq-27" value="&lt;span style=&quot;font-size: 14px;&quot;&gt;Display Interface&lt;/span&gt;" style="rounded=0;whiteSpace=wrap;html=1;" parent="mD9q8K3ibK48MS1nmoSq-58" vertex="1">
          <mxGeometry x="580" y="270" width="120" height="60" as="geometry" />
        </mxCell>
        <mxCell id="mD9q8K3ibK48MS1nmoSq-28" value="" style="group" parent="mD9q8K3ibK48MS1nmoSq-58" vertex="1" connectable="0">
          <mxGeometry x="300" y="600" width="130" height="130" as="geometry" />
        </mxCell>
        <mxCell id="mD9q8K3ibK48MS1nmoSq-29" value="&lt;span style=&quot;font-size: 14px;&quot;&gt;Open PCAP file&lt;/span&gt;" style="ellipse;whiteSpace=wrap;html=1;aspect=fixed;container=1;" parent="mD9q8K3ibK48MS1nmoSq-28" vertex="1">
          <mxGeometry width="130" height="130" as="geometry" />
        </mxCell>
        <mxCell id="mD9q8K3ibK48MS1nmoSq-30" value="" style="endArrow=none;html=1;rounded=0;exitX=0;exitY=0;exitDx=0;exitDy=0;entryX=1;entryY=0;entryDx=0;entryDy=0;" parent="mD9q8K3ibK48MS1nmoSq-28" source="mD9q8K3ibK48MS1nmoSq-29" target="mD9q8K3ibK48MS1nmoSq-29" edge="1">
          <mxGeometry width="50" height="50" relative="1" as="geometry">
            <mxPoint x="50" y="195" as="sourcePoint" />
            <mxPoint x="100" y="145" as="targetPoint" />
          </mxGeometry>
        </mxCell>
        <mxCell id="mD9q8K3ibK48MS1nmoSq-31" value="1.4" style="text;html=1;align=center;verticalAlign=middle;whiteSpace=wrap;rounded=0;" parent="mD9q8K3ibK48MS1nmoSq-28" vertex="1">
          <mxGeometry x="37.5" width="55" height="20" as="geometry" />
        </mxCell>
        <mxCell id="mD9q8K3ibK48MS1nmoSq-33" value="&lt;span style=&quot;font-size: 14px;&quot;&gt;PCAP file&lt;/span&gt;" style="rounded=0;whiteSpace=wrap;html=1;" parent="mD9q8K3ibK48MS1nmoSq-58" vertex="1">
          <mxGeometry y="635" width="120" height="60" as="geometry" />
        </mxCell>
        <mxCell id="mD9q8K3ibK48MS1nmoSq-34" value="" style="endArrow=classic;html=1;rounded=0;exitX=1;exitY=0.5;exitDx=0;exitDy=0;entryX=0;entryY=0.5;entryDx=0;entryDy=0;" parent="mD9q8K3ibK48MS1nmoSq-58" source="mD9q8K3ibK48MS1nmoSq-33" target="mD9q8K3ibK48MS1nmoSq-29" edge="1">
          <mxGeometry width="50" height="50" relative="1" as="geometry">
            <mxPoint x="130" y="310" as="sourcePoint" />
            <mxPoint x="310" y="310" as="targetPoint" />
          </mxGeometry>
        </mxCell>
        <mxCell id="mD9q8K3ibK48MS1nmoSq-51" value="&lt;font style=&quot;font-size: 14px;&quot;&gt;Log File to display&lt;/font&gt;" style="edgeLabel;html=1;align=center;verticalAlign=middle;resizable=0;points=[];" parent="mD9q8K3ibK48MS1nmoSq-34" vertex="1" connectable="0">
          <mxGeometry x="-0.2963" y="1" relative="1" as="geometry">
            <mxPoint x="18" y="1" as="offset" />
          </mxGeometry>
        </mxCell>
        <mxCell id="mD9q8K3ibK48MS1nmoSq-35" value="" style="group" parent="mD9q8K3ibK48MS1nmoSq-58" vertex="1" connectable="0">
          <mxGeometry x="300" y="410" width="130" height="130" as="geometry" />
        </mxCell>
        <mxCell id="mD9q8K3ibK48MS1nmoSq-36" value="&lt;span style=&quot;font-size: 14px;&quot;&gt;Export As PDF&lt;/span&gt;" style="ellipse;whiteSpace=wrap;html=1;aspect=fixed;container=1;" parent="mD9q8K3ibK48MS1nmoSq-35" vertex="1">
          <mxGeometry width="130" height="130" as="geometry" />
        </mxCell>
        <mxCell id="mD9q8K3ibK48MS1nmoSq-37" value="" style="endArrow=none;html=1;rounded=0;exitX=0;exitY=0;exitDx=0;exitDy=0;entryX=1;entryY=0;entryDx=0;entryDy=0;" parent="mD9q8K3ibK48MS1nmoSq-35" source="mD9q8K3ibK48MS1nmoSq-36" target="mD9q8K3ibK48MS1nmoSq-36" edge="1">
          <mxGeometry width="50" height="50" relative="1" as="geometry">
            <mxPoint x="50" y="195" as="sourcePoint" />
            <mxPoint x="100" y="145" as="targetPoint" />
          </mxGeometry>
        </mxCell>
        <mxCell id="mD9q8K3ibK48MS1nmoSq-38" value="1.3" style="text;html=1;align=center;verticalAlign=middle;whiteSpace=wrap;rounded=0;" parent="mD9q8K3ibK48MS1nmoSq-35" vertex="1">
          <mxGeometry x="37.5" width="55" height="20" as="geometry" />
        </mxCell>
        <mxCell id="mD9q8K3ibK48MS1nmoSq-41" value="&lt;span style=&quot;font-size: 14px;&quot;&gt;Display Window&lt;/span&gt;" style="rounded=0;whiteSpace=wrap;html=1;" parent="mD9q8K3ibK48MS1nmoSq-58" vertex="1">
          <mxGeometry x="580" y="635" width="120" height="60" as="geometry" />
        </mxCell>
        <mxCell id="mD9q8K3ibK48MS1nmoSq-42" value="" style="endArrow=classic;html=1;rounded=0;exitX=1;exitY=0.5;exitDx=0;exitDy=0;entryX=0;entryY=0.5;entryDx=0;entryDy=0;" parent="mD9q8K3ibK48MS1nmoSq-58" source="mD9q8K3ibK48MS1nmoSq-29" target="mD9q8K3ibK48MS1nmoSq-41" edge="1">
          <mxGeometry width="50" height="50" relative="1" as="geometry">
            <mxPoint x="440" y="310" as="sourcePoint" />
            <mxPoint x="590" y="310" as="targetPoint" />
          </mxGeometry>
        </mxCell>
        <mxCell id="mD9q8K3ibK48MS1nmoSq-52" value="&lt;font style=&quot;font-size: 14px;&quot;&gt;Logs Shown&lt;/font&gt;" style="edgeLabel;html=1;align=center;verticalAlign=middle;resizable=0;points=[];" parent="mD9q8K3ibK48MS1nmoSq-42" vertex="1" connectable="0">
          <mxGeometry x="-0.1889" relative="1" as="geometry">
            <mxPoint as="offset" />
          </mxGeometry>
        </mxCell>
        <mxCell id="mD9q8K3ibK48MS1nmoSq-43" value="" style="endArrow=classic;html=1;rounded=0;exitX=0.5;exitY=1;exitDx=0;exitDy=0;entryX=1;entryY=0;entryDx=0;entryDy=0;" parent="mD9q8K3ibK48MS1nmoSq-58" source="mD9q8K3ibK48MS1nmoSq-27" target="mD9q8K3ibK48MS1nmoSq-36" edge="1">
          <mxGeometry width="50" height="50" relative="1" as="geometry">
            <mxPoint x="440" y="310" as="sourcePoint" />
            <mxPoint x="590" y="310" as="targetPoint" />
            <Array as="points">
              <mxPoint x="640" y="429" />
            </Array>
          </mxGeometry>
        </mxCell>
        <mxCell id="mD9q8K3ibK48MS1nmoSq-53" value="&lt;font style=&quot;font-size: 14px;&quot;&gt;Input of Logged Packets&lt;/font&gt;" style="edgeLabel;html=1;align=center;verticalAlign=middle;resizable=0;points=[];" parent="mD9q8K3ibK48MS1nmoSq-43" vertex="1" connectable="0">
          <mxGeometry x="0.4165" relative="1" as="geometry">
            <mxPoint x="8" as="offset" />
          </mxGeometry>
        </mxCell>
        <mxCell id="mD9q8K3ibK48MS1nmoSq-44" value="" style="endArrow=classic;html=1;rounded=0;exitX=0.5;exitY=0;exitDx=0;exitDy=0;entryX=1;entryY=1;entryDx=0;entryDy=0;" parent="mD9q8K3ibK48MS1nmoSq-58" source="mD9q8K3ibK48MS1nmoSq-41" target="mD9q8K3ibK48MS1nmoSq-36" edge="1">
          <mxGeometry width="50" height="50" relative="1" as="geometry">
            <mxPoint x="650" y="340" as="sourcePoint" />
            <mxPoint x="421" y="439" as="targetPoint" />
            <Array as="points">
              <mxPoint x="640" y="521" />
            </Array>
          </mxGeometry>
        </mxCell>
        <mxCell id="mD9q8K3ibK48MS1nmoSq-54" value="&lt;font style=&quot;font-size: 14px;&quot;&gt;Input of Stored Logged Packets&lt;/font&gt;" style="edgeLabel;html=1;align=center;verticalAlign=middle;resizable=0;points=[];" parent="mD9q8K3ibK48MS1nmoSq-44" vertex="1" connectable="0">
          <mxGeometry x="0.3497" y="-2" relative="1" as="geometry">
            <mxPoint x="6" as="offset" />
          </mxGeometry>
        </mxCell>
        <mxCell id="mD9q8K3ibK48MS1nmoSq-45" value="&lt;span style=&quot;font-size: 14px;&quot;&gt;PDF Log File&lt;/span&gt;" style="rounded=0;whiteSpace=wrap;html=1;" parent="mD9q8K3ibK48MS1nmoSq-58" vertex="1">
          <mxGeometry x="580" y="445" width="120" height="60" as="geometry" />
        </mxCell>
        <mxCell id="mD9q8K3ibK48MS1nmoSq-46" value="" style="endArrow=classic;html=1;rounded=0;exitX=1;exitY=0.5;exitDx=0;exitDy=0;entryX=0;entryY=0.5;entryDx=0;entryDy=0;" parent="mD9q8K3ibK48MS1nmoSq-58" source="mD9q8K3ibK48MS1nmoSq-36" target="mD9q8K3ibK48MS1nmoSq-45" edge="1">
          <mxGeometry width="50" height="50" relative="1" as="geometry">
            <mxPoint x="440" y="675" as="sourcePoint" />
            <mxPoint x="590" y="675" as="targetPoint" />
          </mxGeometry>
        </mxCell>
        <mxCell id="mD9q8K3ibK48MS1nmoSq-55" value="&lt;font style=&quot;font-size: 14px;&quot;&gt;Stored as PDF&lt;/font&gt;" style="edgeLabel;html=1;align=center;verticalAlign=middle;resizable=0;points=[];" parent="mD9q8K3ibK48MS1nmoSq-46" vertex="1" connectable="0">
          <mxGeometry x="-0.1889" y="1" relative="1" as="geometry">
            <mxPoint as="offset" />
          </mxGeometry>
        </mxCell>
        <mxCell id="mD9q8K3ibK48MS1nmoSq-57" value="&lt;font style=&quot;font-size: 16px;&quot;&gt;Level 1 DFD&lt;/font&gt;" style="rounded=1;arcSize=9;fillColor=#F7F8F9;align=center;spacingLeft=5;strokeColor=#DEE1E6;html=1;strokeWidth=2;fontSize=12" parent="mD9q8K3ibK48MS1nmoSq-58" vertex="1">
          <mxGeometry x="220" width="290" height="40" as="geometry" />
        </mxCell>
      </root>
    </mxGraphModel>
  </diagram>
</mxfile>
